<svg role="img" viewBox="0 0 24 24" xmlns="http://www.w3.org/2000/svg"><title>i2p</title><path d="M11.344.285C8.84.578 6.64 2.32 5.859 4.641c-.394 1.164-.425 2.668-.09 3.964.165.645.676 1.59 1.348 2.504.055.075.024.11-.316.309-.207.121-.7.457-1.09.738-.395.285-1.004.707-1.352.938-.734.492-.867.597-.988.844l-.094.175.121.227c.204.363.5.668 1.235 1.254.937.746 1.57 1.347 1.699 1.605.156.305.168.762.047 1.594-.082.57-.094.727-.05 1.035.085.617.327 1.223.718 1.8.176.267.18.282.125.446-.031.094-.18.348-.32.563-.43.656-.457.867-.133 1.062.14.086.281.09 2.398.106 1.703.011 2.313 0 2.508-.043.168-.043.473-.059.867-.043.844.027 1.38.02 3-.04 1.613-.054 2.067-.085 2.188-.152.133-.07.242-.316.207-.484-.02-.082-.137-.285-.266-.445-.332-.418-.418-.567-.418-.758 0-.14.04-.203.211-.367.543-.504.719-1.426.492-2.543l-.097-.47.214-.23c.403-.433.582-.964.68-2.035.047-.5.09-.664.379-1.523.535-1.563.566-1.68.508-1.875-.14-.438-.531-.914-1.383-1.684-.262-.234-.535-.511-.602-.605l-.12-.176.277-.543c.496-.98.703-1.766.738-2.781.035-1.051-.191-2.196-.617-3.09-.395-.832-1.145-1.746-1.899-2.324C14.648.578 12.961.102 11.344.285Zm1.574 1.05c1.176.204 2.18.728 3.047 1.59.746.747 1.219 1.552 1.476 2.536.098.371.114.52.11 1.242-.004.906-.082 1.313-.39 2.082-.634 1.582-1.993 2.77-3.692 3.219-.477.129-1.418.168-2.031.09-.723-.09-.844 0-1.079.797-.18.605-.742 2.175-.91 2.546l-.16.356-.355-.156a4.329 4.329 0 0 1-.38-.176c-.038-.04.157-.621.454-1.375.156-.39.344-.871.414-1.078.07-.207.187-.496.254-.649a1.41 1.41 0 0 0 .12-.449c0-.21-.019-.23-.706-.707-1.504-1.05-2.387-2.719-2.387-4.52 0-.863.156-1.507.543-2.292a5.282 5.282 0 0 1 1.098-1.536c.836-.843 1.926-1.406 3.023-1.558.348-.047 1.172-.027 1.551.039Zm3.777 14.583c.395.133.79.574.79.883 0 .16-.196.379-.419.469-.265.101-.77.187-.914.148-.187-.047-.308-.34-.308-.77 0-.703.265-.93.851-.73Zm-8.484.387c.344.12.789.386 1.039.625.238.226.219.246-.371.324-.484.066-.883.016-1.223-.149-.414-.203-.593-.648-.34-.847.141-.117.489-.102.895.047Zm7.11 1.164c.152.504.456.703.984.648.168-.02.336-.047.375-.062.058-.024.062.023.035.324-.024.191-.047.629-.055.976-.02.606-.023.637-.164.852-.2.309-.52.598-1.098.977-.734.488-.988.523-1.351.195-.235-.211-.945-1.027-1.176-1.356-.168-.226-.332-.636-.289-.707.012-.02.043-.253.07-.52.059-.558.153-.858.301-.96.059-.043.211-.07.387-.07.2 0 .484-.055.87-.168.821-.239.997-.293 1.028-.297.016-.004.051.074.082.168Zm-4.415.386c.926.422 1.258 2.012.621 2.942-.48.691-1.613 1.031-2.527.762-.379-.114-.918-.747-1.293-1.528-.23-.484-.3-.797-.332-1.465-.031-.55-.023-.574.059-.546.046.011.293.058.535.101.633.11 1.023.07 1.71-.164.637-.215.923-.238 1.227-.102Zm0 0 M14.133 3.52c-.39.058-.91.324-1.14.585-.43.489-.587 1.188-.407 1.864.098.379.234.617.508.906.316.34.644.492 1.105.523 1.137.063 2-.671 2.059-1.75.07-1.363-.867-2.304-2.125-2.128Zm.726.656c.418.187.73.601.84 1.105.125.61-.156 1.168-.707 1.399l-.18.07v-.172c0-.3-.093-.547-.28-.726-.16-.16-.204-.18-.419-.18-.324 0-.582.137-.715.375a.834.834 0 0 1-.136.187c-.051 0-.227-.441-.258-.648-.082-.508.398-1.246.945-1.438.27-.097.66-.085.91.028Zm-5.625-.449A2.02 2.02 0 0 0 7.95 4.828c-.136.285-.144.336-.144.844 0 .516.004.555.148.824.297.563.86.965 1.438 1.027.355.04.953-.039 1.23-.16.902-.398 1.23-1.644.707-2.683-.18-.371-.52-.715-.855-.867-.332-.153-.868-.188-1.239-.086Zm1.008.628c.422.188.676.528.774 1.036.054.3-.004.687-.137.847l-.082.106-.11-.223c-.285-.59-1.078-.66-1.433-.121-.113.164-.121.219-.106.535l.016.348-.125-.067a1.341 1.341 0 0 1-.582-.605c-.137-.281-.152-.793-.043-1.106.254-.718 1.11-1.07 1.828-.75Zm0"/></svg>